<svg width="146" height="146" viewBox="0 0 146 146" fill="none" xmlns="http://www.w3.org/2000/svg">
<path d="M23.5025 122.497C12.5177 111.513 5.49901 97.1858 3.55197 81.7733C1.60493 66.3609 4.84014 50.7387 12.7481 37.3671C20.656 23.9955 32.7873 13.6344 47.2313 7.91564C61.6753 2.19686 77.6113 1.44534 92.5294 5.77944L73 73L23.5025 122.497Z" fill="url(#paint0_linear_203_11)" stroke="#3D3D3D" stroke-width="5"/>
<path d="M92.2946 5.71169C103.987 9.06435 114.603 15.4058 123.099 24.1109C131.594 32.8161 137.674 43.5846 140.74 55.3552C143.806 67.1257 143.752 79.492 140.583 91.2353C137.414 102.979 131.241 113.694 122.67 122.324L73 73L92.2946 5.71169Z" fill="url(#paint1_linear_203_11)" stroke="#3D3D3D" stroke-width="5"/>
<path d="M122.497 122.497C115.997 128.998 108.281 134.154 99.7878 137.672C91.295 141.189 82.1925 143 73 143C63.8075 143 54.7049 141.189 46.2121 137.672C37.7194 134.154 30.0026 128.998 23.5025 122.497L73 73L122.497 122.497Z" fill="url(#paint2_linear_203_11)" stroke="#3D3D3D" stroke-width="5"/>
<rect x="48" y="48" width="50" height="50" rx="25" fill="white"/>
<path d="M77.236 63.72L79.564 65.208L68.452 81.96L66.124 80.472L77.236 63.72ZM67.468 64.44C68.268 64.44 68.988 64.616 69.628 64.968C70.284 65.32 70.796 65.824 71.164 66.48C71.548 67.136 71.74 67.896 71.74 68.76C71.74 69.624 71.548 70.384 71.164 71.04C70.796 71.696 70.284 72.2 69.628 72.552C68.988 72.904 68.268 73.08 67.468 73.08C66.668 73.08 65.94 72.904 65.284 72.552C64.644 72.184 64.132 71.68 63.748 71.04C63.38 70.384 63.196 69.624 63.196 68.76C63.196 67.896 63.38 67.144 63.748 66.504C64.132 65.848 64.644 65.344 65.284 64.992C65.94 64.624 66.668 64.44 67.468 64.44ZM67.468 66.72C66.428 66.72 65.908 67.4 65.908 68.76C65.908 69.352 66.02 69.84 66.244 70.224C66.484 70.608 66.892 70.8 67.468 70.8C68.492 70.8 69.004 70.12 69.004 68.76C69.004 67.4 68.492 66.72 67.468 66.72ZM78.148 72.792C78.948 72.792 79.668 72.968 80.308 73.32C80.964 73.672 81.476 74.176 81.844 74.832C82.228 75.472 82.42 76.224 82.42 77.088C82.42 77.952 82.228 78.712 81.844 79.368C81.476 80.024 80.964 80.528 80.308 80.88C79.668 81.232 78.948 81.408 78.148 81.408C77.348 81.408 76.62 81.232 75.964 80.88C75.308 80.528 74.788 80.024 74.404 79.368C74.036 78.712 73.852 77.952 73.852 77.088C73.852 76.224 74.036 75.472 74.404 74.832C74.788 74.176 75.308 73.672 75.964 73.32C76.62 72.968 77.348 72.792 78.148 72.792ZM78.148 75.072C77.108 75.072 76.588 75.744 76.588 77.088C76.588 77.68 76.7 78.176 76.924 78.576C77.164 78.96 77.572 79.152 78.148 79.152C79.172 79.152 79.684 78.464 79.684 77.088C79.684 75.744 79.172 75.072 78.148 75.072Z" fill="#292929"/>
<rect x="48" y="48" width="50" height="50" rx="25" stroke="#3D3D3D" stroke-width="5"/>
<defs>
<linearGradient id="paint0_linear_203_11" x1="73" y1="3" x2="73" y2="143" gradientUnits="userSpaceOnUse">
<stop stop-color="#70DA1C"/>
<stop offset="1" stop-color="#B6F829"/>
</linearGradient>
<linearGradient id="paint1_linear_203_11" x1="73" y1="3" x2="73" y2="143" gradientUnits="userSpaceOnUse">
<stop stop-color="#0085FF"/>
<stop offset="1" stop-color="#00FFFF"/>
</linearGradient>
<linearGradient id="paint2_linear_203_11" x1="73" y1="3" x2="73" y2="143" gradientUnits="userSpaceOnUse">
<stop stop-color="#CD4949"/>
<stop offset="1" stop-color="#F46640"/>
</linearGradient>
</defs>
</svg>
