<svg width="175" height="80" viewBox="0 0 175 80" fill="none" xmlns="http://www.w3.org/2000/svg">
<path d="M6.19506 27.85C6.19506 29.2033 6.03173 30.2883 5.70506 31.105C5.40173 31.945 4.87673 32.6567 4.13006 33.24C3.40673 33.8233 2.36839 34.395 1.01506 34.955L0.560059 33.73C1.63339 33.24 2.45006 32.7383 3.01006 32.225C3.57006 31.735 3.95506 31.1517 4.16506 30.475C4.39839 29.775 4.51506 28.865 4.51506 27.745V7.06H6.19506V27.85Z" fill="#525252"/>
<path d="M25.5897 6.71C27.5264 6.71 29.218 7.18833 30.6647 8.145C32.1114 9.07833 33.2314 10.4783 34.0247 12.345C34.8414 14.1883 35.2497 16.4283 35.2497 19.065C35.2497 21.655 34.853 23.8717 34.0597 25.715C33.2664 27.5583 32.1464 28.97 30.6997 29.95C29.253 30.9067 27.5497 31.385 25.5897 31.385C23.6764 31.385 21.9964 30.9067 20.5497 29.95C19.103 28.9933 17.9714 27.5933 17.1547 25.75C16.3614 23.9067 15.9647 21.69 15.9647 19.1C15.9647 16.51 16.3614 14.2817 17.1547 12.415C17.9714 10.5483 19.103 9.13667 20.5497 8.18C22.0197 7.2 23.6997 6.71 25.5897 6.71ZM25.5897 8.145C23.163 8.145 21.238 9.07833 19.8147 10.945C18.4147 12.7883 17.7147 15.5067 17.7147 19.1C17.7147 22.6233 18.4264 25.3067 19.8497 27.15C21.273 28.9933 23.1864 29.915 25.5897 29.915C28.0864 29.915 30.023 29.005 31.3997 27.185C32.7997 25.3417 33.4997 22.635 33.4997 19.065C33.4997 15.4717 32.7997 12.7533 31.3997 10.91C29.9997 9.06666 28.063 8.145 25.5897 8.145Z" fill="#525252"/>
<path d="M58.0571 31L55.8521 24.28H45.4571L43.2521 31H41.5721L49.6571 7.06H51.7571L59.8421 31H58.0571ZM45.9471 22.81H55.3971L50.7071 8.425L45.9471 22.81ZM52.7371 3.14C52.3171 3.14 51.9205 3.07 51.5471 2.93C51.1738 2.76667 50.7538 2.545 50.2871 2.265C49.5871 1.82166 49.0388 1.6 48.6421 1.6C48.2455 1.6 47.8955 1.705 47.5921 1.915C47.3121 2.10167 46.9971 2.42833 46.6471 2.895L45.6321 2.37C46.4955 0.969999 47.4988 0.269999 48.6421 0.269999C48.9921 0.269999 49.3188 0.339998 49.6221 0.479998C49.9255 0.596664 50.3105 0.794998 50.7771 1.075C51.1971 1.30833 51.5471 1.495 51.8271 1.635C52.1305 1.75166 52.4338 1.81 52.7371 1.81C53.1105 1.81 53.4371 1.705 53.7171 1.495C54.0205 1.26166 54.3588 0.864998 54.7321 0.304998L55.7471 0.829998C55.0005 2.37 53.9971 3.14 52.7371 3.14Z" fill="#525252"/>
<path d="M75.7587 6.71C77.6953 6.71 79.387 7.18833 80.8337 8.145C82.2803 9.07833 83.4003 10.4783 84.1937 12.345C85.0103 14.1883 85.4187 16.4283 85.4187 19.065C85.4187 21.655 85.022 23.8717 84.2287 25.715C83.4353 27.5583 82.3153 28.97 80.8687 29.95C79.422 30.9067 77.7187 31.385 75.7587 31.385C73.8453 31.385 72.1653 30.9067 70.7187 29.95C69.272 28.9933 68.1403 27.5933 67.3237 25.75C66.5303 23.9067 66.1337 21.69 66.1337 19.1C66.1337 16.51 66.5303 14.2817 67.3237 12.415C68.1403 10.5483 69.272 9.13667 70.7187 8.18C72.1887 7.2 73.8687 6.71 75.7587 6.71ZM75.7587 8.145C73.332 8.145 71.407 9.07833 69.9837 10.945C68.5837 12.7883 67.8837 15.5067 67.8837 19.1C67.8837 22.6233 68.5953 25.3067 70.0187 27.15C71.442 28.9933 73.3553 29.915 75.7587 29.915C78.2553 29.915 80.192 29.005 81.5687 27.185C82.9687 25.3417 83.6687 22.635 83.6687 19.065C83.6687 15.4717 82.9687 12.7533 81.5687 10.91C80.1687 9.06666 78.232 8.145 75.7587 8.145Z" fill="#525252"/>
<path d="M44.1601 79H36.4201L35.3401 61.66C34.9801 55.46 34.8001 50.54 34.8001 46.9V44.74L27.2401 74.5H19.7401L11.7001 44.68C11.7801 47.32 11.8201 49.32 11.8201 50.68C11.8201 54.32 11.7001 58.06 11.4601 61.9L10.4401 79H2.76006L6.06006 37.54H16.2601L23.6401 66.58L30.6001 37.54H40.9201L44.1601 79Z" fill="#141414"/>
<path d="M82.0337 65.44C82.0337 68.24 81.4337 70.74 80.2337 72.94C79.0737 75.1 77.3137 76.8 74.9537 78.04C72.6337 79.28 69.8336 79.9 66.5536 79.9C61.5936 79.9 57.7937 78.6 55.1537 76C52.5137 73.36 51.1937 69.84 51.1937 65.44V37.54H59.1137V65.02C59.1137 67.94 59.7137 70.12 60.9137 71.56C62.1537 73 64.0336 73.72 66.5536 73.72C69.1137 73.72 70.9937 73 72.1937 71.56C73.4337 70.12 74.0536 67.94 74.0536 65.02V37.54H82.0337V65.44Z" fill="#141414"/>
<path d="M121.769 79H111.509L97.2887 45.46C97.6487 48.42 97.9086 51.1 98.0686 53.5C98.2686 55.9 98.3687 58.76 98.3687 62.08V79H91.1687V37.54H101.189L115.649 71.14C115.409 69.54 115.169 67.44 114.929 64.84C114.689 62.2 114.569 59.58 114.569 56.98V37.54H121.769V79Z" fill="#141414"/>
<path d="M139.401 37.54V79H131.481V37.54H139.401Z" fill="#141414"/>
<path d="M174.018 37.54V43.66L154.878 72.52H174.198L173.358 79H145.638V72.94L165.138 43.84H147.618V37.54H174.018Z" fill="#141414"/>
</svg>
